<svg viewBox="0.0 0.0 960.0 720.0" xmlns="http://www.w3.org/2000/svg" fill="none"><clipPath id="a"><path d="M0 0h960v720h-960v-720z"/></clipPath><g clip-path="url(#a)"><path d="M0 0h960v720h-960zM337.097 360l428.567-140" fill="none"/><path stroke="#f9cb9c" stroke-width="2" stroke-linejoin="round" d="M337.097 360l417.16-136.274" fill-rule="evenodd"/><path fill="#f9cb9c" stroke="#f9cb9c" stroke-width="2" d="M755.283 226.866l7.602-5.959-9.653-.322z" fill-rule="evenodd"/><path d="M764.832 355.832l-642.488-100" fill="none"/><path stroke="#b6d7a8" stroke-width="2" stroke-linejoin="round" d="M764.832 355.832l-630.631-98.155" fill-rule="evenodd"/><path fill="#b6d7a8" stroke="#b6d7a8" stroke-width="2" d="M134.709 254.413l-9.476 1.868 8.46 4.66z" fill-rule="evenodd"/><path d="M442.249 381l-320.756 76.504" fill="none"/><path stroke="#b6d7a8" stroke-width="2" stroke-linejoin="round" d="M442.249 381l-309.083 73.72" fill-rule="evenodd"/><path fill="#b6d7a8" stroke="#b6d7a8" stroke-width="2" d="M132.4 451.507l-8.062 5.319 9.595 1.108z" fill-rule="evenodd"/><path d="M242.924 242.493v74.593" fill="none"/><path stroke="#000" stroke-width="2" stroke-linejoin="round" d="M242.924 242.493v62.593" fill-rule="evenodd"/><path stroke="#000" stroke-width="2" d="M239.62 305.087l3.303 9.076 3.303-9.076z" fill-rule="evenodd"/><path fill="#ccc" d="M152.499 97.501h180.85v18.331h-180.85z"/><path stroke="#000" stroke-width="2" stroke-linejoin="round" d="M152.499 97.501h180.85v18.331h-180.85z"/><path fill="#ccc" d="M195.832 32.501h99.181v74.583h-99.181z"/><path stroke="#000" stroke-width="2" stroke-linejoin="round" d="M195.832 32.501h99.181v74.583h-99.181z"/><path d="M212.602 76.713v-13.594h5.109q1.547 0 2.484.406.953.406 1.484 1.266.531.859.531 1.797 0 .875-.469 1.656-.469.766-1.438 1.234 1.234.359 1.891 1.234.672.875.672 2.063 0 .953-.406 1.781-.391.813-.984 1.266-.594.438-1.5.672-.891.219-2.188.219h-5.188zm1.797-7.891h2.938q1.203 0 1.719-.156.688-.203 1.031-.672.359-.469.359-1.188 0-.672-.328-1.188-.328-.516-.938-.703-.594-.203-2.063-.203h-2.719v4.109zm0 6.281h3.391q.875 0 1.219-.063.625-.109 1.047-.359.422-.266.688-.766.266-.5.266-1.141 0-.766-.391-1.328-.391-.563-1.078-.781-.688-.234-1.984-.234h-3.156v4.672zm10.49 1.609v-9.859h1.5v1.5q.578-1.047 1.063-1.375.484-.344 1.078-.344.844 0 1.719.547l-.578 1.547q-.609-.359-1.234-.359-.547 0-.984.328-.422.328-.609.906-.281.891-.281 1.953v5.156h-1.672zm5.603-4.922q0-2.734 1.531-4.063 1.266-1.094 3.094-1.094 2.031 0 3.313 1.344 1.297 1.328 1.297 3.672 0 1.906-.578 3-.563 1.078-1.656 1.688-1.078.594-2.375.594-2.063 0-3.344-1.328-1.281-1.328-1.281-3.813zm1.719 0q0 1.891.828 2.828.828.938 2.078.938t2.063-.938q.828-.953.828-2.891 0-1.828-.828-2.766t-2.063-.938q-1.25 0-2.078.938-.828.938-.828 2.828zm11.11 4.922l-3.016-9.859h1.719l1.563 5.688.594 2.125q.031-.156.5-2.031l1.578-5.781h1.719l1.469 5.719.484 1.891.578-1.906 1.688-5.703h1.625l-3.078 9.859h-1.734l-1.578-5.906-.375-1.672-2 7.578h-1.734zm10.973-2.938l1.656-.266q.141 1 .766 1.531.641.516 1.781.516 1.156 0 1.703-.469.563-.469.563-1.094 0-.563-.484-.891-.344-.219-1.703-.563-1.844-.469-2.563-.797-.703-.344-1.078-.938-.359-.609-.359-1.328 0-.656.297-1.219.313-.563.828-.938.391-.281 1.063-.484.672-.203 1.438-.203 1.172 0 2.047.344.875.328 1.281.906.422.563.578 1.516l-1.625.219q-.109-.75-.656-1.172-.531-.438-1.5-.438-1.156 0-1.641.391-.484.375-.484.875 0 .328.203.594.203.266.641.438.25.094 1.469.438 1.766.469 2.469.766.703.297 1.094.875.406.578.406 1.438 0 .828-.484 1.578-.484.734-1.406 1.141-.922.391-2.078.391-1.922 0-2.938-.797-1-.797-1.281-2.359zm16.75-.234l1.719.219q-.406 1.5-1.516 2.344-1.094.828-2.813.828-2.156 0-3.422-1.328t-1.266-3.734q0-2.484 1.266-3.859 1.281-1.375 3.328-1.375 1.984 0 3.234 1.344t1.25 3.797l-.016.438h-7.344q.094 1.625.922 2.484.828.859 2.063.859.906 0 1.547-.469.656-.484 1.047-1.547zm-5.484-2.703h5.5q-.109-1.234-.625-1.859-.797-.969-2.078-.969-1.141 0-1.938.781-.781.766-.859 2.047zm9.094 5.875v-9.859h1.5v1.5q.578-1.047 1.063-1.375.484-.344 1.078-.344.844 0 1.719.547l-.578 1.547q-.609-.359-1.234-.359-.547 0-.984.328-.422.328-.609.906-.281.891-.281 1.953v5.156h-1.672z"/><path d="M242.924 115.832v40.835" fill="none"/><path stroke="#000" stroke-width="2" stroke-linejoin="round" d="M242.924 115.832v28.835" fill-rule="evenodd"/><path stroke="#000" stroke-width="2" d="M239.62 144.667l3.303 9.076 3.303-9.076z" fill-rule="evenodd"/><path fill="#cfe2f3" d="M442.249 338.087h188.346v85.827h-188.346z"/><path stroke="#000" stroke-width="2" stroke-linejoin="round" d="M442.249 338.087h188.346v85.827h-188.346z"/><path d="M510.322 383.545l1.688-.141q.125 1.016.563 1.672.438.656 1.359 1.063.938.406 2.094.406 1.031 0 1.813-.313.797-.313 1.188-.844.391-.531.391-1.156 0-.641-.375-1.109-.375-.484-1.234-.813-.547-.219-2.422-.656-1.875-.453-2.625-.859-.969-.516-1.453-1.266-.469-.75-.469-1.688 0-1.031.578-1.922.594-.906 1.703-1.359 1.125-.469 2.5-.469 1.516 0 2.672.484 1.156.484 1.766 1.438.625.938.672 2.141l-1.719.125q-.141-1.281-.953-1.938-.797-.672-2.359-.672-1.625 0-2.375.609-.75.594-.75 1.438 0 .734.531 1.203.516.469 2.703.969 2.203.5 3.016.875 1.188.547 1.75 1.391.578.828.578 1.922 0 1.094-.625 2.063-.625.953-1.797 1.484-1.156.531-2.609.531-1.844 0-3.094-.531-1.25-.547-1.969-1.625-.703-1.078-.734-2.453zm16.49 2.875l.234 1.484q-.703.141-1.266.141-.906 0-1.406-.281-.5-.297-.703-.75-.203-.469-.203-1.984v-5.656h-1.234v-1.313h1.234v-2.438l1.656-1v3.438h1.688v1.313h-1.688v5.75q0 .719.078.922.094.203.297.328.203.125.578.125.266 0 .734-.078zm.902-3.422q0-2.734 1.531-4.063 1.266-1.094 3.094-1.094 2.031 0 3.313 1.344 1.297 1.328 1.297 3.672 0 1.906-.578 3-.563 1.078-1.656 1.688-1.078.594-2.375.594-2.063 0-3.344-1.328-1.281-1.328-1.281-3.813zm1.719 0q0 1.891.828 2.828.828.938 2.078.938t2.063-.938q.828-.953.828-2.891 0-1.828-.828-2.766t-2.063-.938q-1.25 0-2.078.938-.828.938-.828 2.828zm9.266 4.922v-9.859h1.5v1.5q.578-1.047 1.063-1.375.484-.344 1.078-.344.844 0 1.719.547l-.578 1.547q-.609-.359-1.234-.359-.547 0-.984.328-.422.328-.609.906-.281.891-.281 1.953v5.156h-1.672zm12.978-3.172l1.719.219q-.406 1.5-1.516 2.344-1.094.828-2.813.828-2.156 0-3.422-1.328t-1.266-3.734q0-2.484 1.266-3.859 1.281-1.375 3.328-1.375 1.984 0 3.234 1.344t1.25 3.797l-.016.438h-7.344q.094 1.625.922 2.484.828.859 2.063.859.906 0 1.547-.469.656-.484 1.047-1.547zm-5.484-2.703h5.5q-.109-1.234-.625-1.859-.797-.969-2.078-.969-1.141 0-1.938.781-.781.766-.859 2.047zm8.438 2.938l1.656-.266q.141 1 .766 1.531.641.516 1.781.516 1.156 0 1.703-.469.563-.469.563-1.094 0-.563-.484-.891-.344-.219-1.703-.563-1.844-.469-2.563-.797-.703-.344-1.078-.938-.359-.609-.359-1.328 0-.656.297-1.219.313-.563.828-.938.391-.281 1.063-.484.672-.203 1.438-.203 1.172 0 2.047.344.875.328 1.281.906.422.563.578 1.516l-1.625.219q-.109-.75-.656-1.172-.531-.438-1.5-.438-1.156 0-1.641.391-.484.375-.484.875 0 .328.203.594.203.266.641.438.25.094 1.469.438 1.766.469 2.469.766.703.297 1.094.875.406.578.406 1.438 0 .828-.484 1.578-.484.734-1.406 1.141-.922.391-2.078.391-1.922 0-2.938-.797-1-.797-1.281-2.359z"/><path d="M242.924 243.738l293.499 94.349" fill="none"/><path stroke="#000" stroke-width="2" stroke-linejoin="round" d="M242.924 243.738l282.074 90.677" fill-rule="evenodd"/><path stroke="#000" stroke-width="2" d="M523.987 337.559l9.652-.367-7.63-5.923z" fill-rule="evenodd"/><path fill="#f6b26b" d="M764.832 156.667h125.008v398.331h-125.008z"/><path stroke="#000" stroke-width="2" stroke-linejoin="round" d="M764.832 156.667h125.008v398.331h-125.008z"/><path d="M775.332 340.752v-13.594h9.844v1.594h-8.047v4.172h7.531v1.594h-7.531v4.625h8.359v1.609h-10.156zm18.647 0v-1.453q-1.141 1.672-3.125 1.672-.859 0-1.625-.328-.75-.344-1.125-.844-.359-.5-.516-1.234-.094-.5-.094-1.563v-6.109h1.672v5.469q0 1.313.094 1.766.156.656.672 1.031.516.375 1.266.375t1.406-.375q.656-.391.922-1.047.281-.672.281-1.938v-5.281h1.672v9.859h-1.5zm3.907 0v-9.859h1.5v1.5q.578-1.047 1.063-1.375.484-.344 1.078-.344.844 0 1.719.547l-.578 1.547q-.609-.359-1.234-.359-.547 0-.984.328-.422.328-.609.906-.281.891-.281 1.953v5.156h-1.672zm12.978-3.172l1.719.219q-.406 1.5-1.516 2.344-1.094.828-2.813.828-2.156 0-3.422-1.328t-1.266-3.734q0-2.484 1.266-3.859 1.281-1.375 3.328-1.375 1.984 0 3.234 1.344t1.25 3.797l-.016.438h-7.344q.094 1.625.922 2.484.828.859 2.063.859.906 0 1.547-.469.656-.484 1.047-1.547zm-5.484-2.703h5.5q-.109-1.234-.625-1.859-.797-.969-2.078-.969-1.141 0-1.938.781-.781.766-.859 2.047zm9.126 5.875v-13.594h1.672v7.75l3.953-4.016h2.156l-3.766 3.656 4.141 6.203h-2.063l-3.25-5.031-1.172 1.125v3.906h-1.672zm15.75-1.219q-.938.797-1.797 1.125-.859.313-1.844.313-1.609 0-2.484-.781-.875-.797-.875-2.031 0-.734.328-1.328.328-.594.859-.953.531-.359 1.203-.547.5-.141 1.484-.25 2.031-.25 2.984-.578v-.438q0-1.016-.469-1.438-.641-.563-1.906-.563-1.172 0-1.734.406-.563.406-.828 1.469l-1.641-.234q.234-1.047.734-1.688.516-.641 1.469-.984.969-.359 2.25-.359 1.266 0 2.047.297.781.297 1.156.75.375.453.516 1.141.094.422.094 1.531v2.234q0 2.328.094 2.953.109.609.438 1.172h-1.75q-.266-.516-.328-1.219zm-.141-3.719q-.906.359-2.734.625-1.031.141-1.453.328-.422.188-.656.547-.234.359-.234.797 0 .672.5 1.125.516.438 1.484.438.969 0 1.719-.422.75-.438 1.109-1.156.266-.578.266-1.672v-.609zM778.27 366.752q-1.375-1.75-2.328-4.078-.953-2.344-.953-4.844 0-2.219.703-4.234.844-2.344 2.578-4.672h1.203q-1.125 1.922-1.484 2.75-.563 1.281-.891 2.672-.406 1.734-.406 3.484 0 4.469 2.781 8.922h-1.203zm2.635-8.375l1.688-.141q.125 1.016.563 1.672.438.656 1.359 1.063.938.406 2.094.406 1.031 0 1.813-.313.797-.313 1.188-.844.391-.531.391-1.156 0-.641-.375-1.109-.375-.484-1.234-.813-.547-.219-2.422-.656-1.875-.453-2.625-.859-.969-.516-1.453-1.266-.469-.75-.469-1.688 0-1.031.578-1.922.594-.906 1.703-1.359 1.125-.469 2.5-.469 1.516 0 2.672.484 1.156.484 1.766 1.438.625.938.672 2.141l-1.719.125q-.141-1.281-.953-1.938-.797-.672-2.359-.672-1.625 0-2.375.609-.75.594-.75 1.438 0 .734.531 1.203.516.469 2.703.969 2.203.5 3.016.875 1.188.547 1.75 1.391.578.828.578 1.922 0 1.094-.625 2.063-.625.953-1.797 1.484-1.156.531-2.609.531-1.844 0-3.094-.531-1.25-.547-1.969-1.625-.703-1.078-.734-2.453zm19.584 1.203l1.719.219q-.406 1.5-1.516 2.344-1.094.828-2.813.828-2.156 0-3.422-1.328t-1.266-3.734q0-2.484 1.266-3.859 1.281-1.375 3.328-1.375 1.984 0 3.234 1.344t1.25 3.797l-.016.438h-7.344q.094 1.625.922 2.484.828.859 2.063.859.906 0 1.547-.469.656-.484 1.047-1.547zm-5.484-2.703h5.5q-.109-1.234-.625-1.859-.797-.969-2.078-.969-1.141 0-1.938.781-.781.766-.859 2.047zm9.094 5.875v-9.859h1.5v1.5q.578-1.047 1.063-1.375.484-.344 1.078-.344.844 0 1.719.547l-.578 1.547q-.609-.359-1.234-.359-.547 0-.984.328-.422.328-.609.906-.281.891-.281 1.953v5.156h-1.672zm8.963 0l-3.75-9.859h1.766l2.125 5.906q.344.953.625 1.984.219-.781.625-1.875l2.188-6.016h1.719l-3.734 9.859h-1.563zm6.609-11.688v-1.906h1.672v1.906h-1.672zm0 11.688v-9.859h1.672v9.859h-1.672zm10.567-3.609l1.641.219q-.266 1.688-1.375 2.656-1.109.953-2.734.953-2.016 0-3.25-1.313-1.219-1.328-1.219-3.797 0-1.594.516-2.781.531-1.203 1.609-1.797 1.094-.609 2.359-.609 1.609 0 2.625.813t1.313 2.313l-1.625.25q-.234-1-.828-1.5t-1.422-.5q-1.266 0-2.063.906-.781.906-.781 2.859 0 1.984.766 2.891.766.891 1.984.891.984 0 1.641-.594.656-.609.844-1.859zm9.641.438l1.719.219q-.406 1.5-1.516 2.344-1.094.828-2.813.828-2.156 0-3.422-1.328t-1.266-3.734q0-2.484 1.266-3.859 1.281-1.375 3.328-1.375 1.984 0 3.234 1.344t1.25 3.797l-.016.438h-7.344q.094 1.625.922 2.484.828.859 2.063.859.906 0 1.547-.469.656-.484 1.047-1.547zm-5.484-2.703h5.5q-.109-1.234-.625-1.859-.797-.969-2.078-.969-1.141 0-1.938.781-.781.766-.859 2.047zM775.301 384.752v-13.594h4.688q1.578 0 2.422.188 1.156.266 1.984.969 1.078.922 1.609 2.344.531 1.406.531 3.219 0 1.547-.359 2.75-.359 1.188-.922 1.984-.563.781-1.234 1.234-.672.438-1.625.672-.953.234-2.188.234h-4.906zm1.797-1.609h2.906q1.344 0 2.109-.25.766-.25 1.219-.703.641-.641 1-1.719t.359-2.625q0-2.125-.703-3.266-.703-1.156-1.703-1.547-.719-.281-2.328-.281h-2.859v10.391zm11.473-10.078v-1.906h1.672v1.906h-1.672zm0 11.688v-9.859h1.672v9.859h-1.672zm3.457-2.938l1.656-.266q.141 1 .766 1.531.641.516 1.781.516 1.156 0 1.703-.469.563-.469.563-1.094 0-.563-.484-.891-.344-.219-1.703-.563-1.844-.469-2.563-.797-.703-.344-1.078-.938-.359-.609-.359-1.328 0-.656.297-1.219.313-.563.828-.938.391-.281 1.063-.484.672-.203 1.438-.203 1.172 0 2.047.344.875.328 1.281.906.422.563.578 1.516l-1.625.219q-.109-.75-.656-1.172-.531-.438-1.5-.438-1.156 0-1.641.391-.484.375-.484.875 0 .328.203.594.203.266.641.438.25.094 1.469.438 1.766.469 2.469.766.703.297 1.094.875.406.578.406 1.438 0 .828-.484 1.578-.484.734-1.406 1.141-.922.391-2.078.391-1.922 0-2.938-.797-1-.797-1.281-2.359zm16.438-.672l1.641.219q-.266 1.688-1.375 2.656-1.109.953-2.734.953-2.016 0-3.25-1.313-1.219-1.328-1.219-3.797 0-1.594.516-2.781.531-1.203 1.609-1.797 1.094-.609 2.359-.609 1.609 0 2.625.813t1.313 2.313l-1.625.25q-.234-1-.828-1.5t-1.422-.5q-1.266 0-2.063.906-.781.906-.781 2.859 0 1.984.766 2.891.766.891 1.984.891.984 0 1.641-.594.656-.609.844-1.859zm2.266-1.313q0-2.734 1.531-4.063 1.266-1.094 3.094-1.094 2.031 0 3.313 1.344 1.297 1.328 1.297 3.672 0 1.906-.578 3-.563 1.078-1.656 1.688-1.078.594-2.375.594-2.063 0-3.344-1.328-1.281-1.328-1.281-3.813zm1.719 0q0 1.891.828 2.828.828.938 2.078.938t2.063-.938q.828-.953.828-2.891 0-1.828-.828-2.766t-2.063-.938q-1.25 0-2.078.938-.828.938-.828 2.828zm12.016 4.922l-3.75-9.859h1.766l2.125 5.906q.344.953.625 1.984.219-.781.625-1.875l2.188-6.016h1.719l-3.734 9.859h-1.563zm13.344-3.172l1.719.219q-.406 1.5-1.516 2.344-1.094.828-2.813.828-2.156 0-3.422-1.328t-1.266-3.734q0-2.484 1.266-3.859 1.281-1.375 3.328-1.375 1.984 0 3.234 1.344t1.25 3.797l-.016.438h-7.344q.094 1.625.922 2.484.828.859 2.063.859.906 0 1.547-.469.656-.484 1.047-1.547zm-5.484-2.703h5.5q-.109-1.234-.625-1.859-.797-.969-2.078-.969-1.141 0-1.938.781-.781.766-.859 2.047zm9.094 5.875v-9.859h1.5v1.5q.578-1.047 1.063-1.375.484-.344 1.078-.344.844 0 1.719.547l-.578 1.547q-.609-.359-1.234-.359-.547 0-.984.328-.422.328-.609.906-.281.891-.281 1.953v5.156h-1.672zm6.15 3.797l-.172-1.563q.547.141.953.141.547 0 .875-.188.344-.188.563-.516.156-.25.5-1.25l.156-.406-3.734-9.875h1.797l2.047 5.719q.406 1.078.719 2.281.281-1.156.688-2.25l2.094-5.75h1.672l-3.75 10.031q-.594 1.625-.938 2.234-.438.828-1.016 1.203-.578.391-1.375.391-.484 0-1.078-.203zm10.5.203h-1.188q2.766-4.453 2.766-8.922 0-1.734-.391-3.453-.328-1.391-.891-2.672-.359-.844-1.484-2.781h1.188q1.75 2.328 2.578 4.672.719 2.016.719 4.234 0 2.5-.969 4.844-.953 2.328-2.328 4.078z"/><path fill="#b6d7a8" d="M24 156.667h95.087v398.331h-95.087z"/><path stroke="#000" stroke-width="2" stroke-linejoin="round" d="M24 156.667h95.087v398.331h-95.087z"/><path d="M44.172 346.986l1.797.453q-.563 2.219-2.031 3.391-1.469 1.156-3.594 1.156-2.203 0-3.578-.891-1.375-.906-2.094-2.594-.719-1.703-.719-3.656 0-2.125.797-3.703.813-1.578 2.313-2.391 1.5-.828 3.297-.828 2.047 0 3.438 1.047 1.391 1.031 1.938 2.906l-1.766.422q-.469-1.484-1.375-2.156-.906-.688-2.266-.688-1.563 0-2.625.75-1.047.75-1.484 2.031-.422 1.266-.422 2.609 0 1.734.5 3.031.516 1.281 1.578 1.922 1.078.641 2.313.641 1.516 0 2.563-.859 1.047-.875 1.422-2.594zm2.926-.156q0-2.734 1.531-4.063 1.266-1.094 3.094-1.094 2.031 0 3.313 1.344 1.297 1.328 1.297 3.672 0 1.906-.578 3-.563 1.078-1.656 1.688-1.078.594-2.375.594-2.063 0-3.344-1.328-1.281-1.328-1.281-3.813zm1.719 0q0 1.891.828 2.828.828.938 2.078.938t2.063-.938q.828-.953.828-2.891 0-1.828-.828-2.766t-2.063-.938q-1.25 0-2.078.938-.828.938-.828 2.828zm9.282 4.922v-9.859h1.5v1.406q1.094-1.625 3.141-1.625.891 0 1.641.328.75.313 1.109.844.375.516.531 1.219.094.469.094 1.625v6.063h-1.672v-6q0-1.016-.203-1.516-.188-.516-.688-.813-.5-.297-1.172-.297-1.063 0-1.844.672-.766.672-.766 2.578v5.375h-1.672zm10.782 0v-8.547h-1.484v-1.313h1.484v-1.047q0-.984.172-1.469.234-.656.844-1.047.609-.406 1.703-.406.703 0 1.563.156l-.25 1.469q-.516-.094-.984-.094-.766 0-1.078.328-.313.313-.313 1.203v.906h1.922v1.313h-1.922v8.547h-1.656zm4.793-11.688v-1.906h1.672v1.906h-1.672zm0 11.688v-9.859h1.672v9.859h-1.672zm3.832.813l1.609.25q.109.75.578 1.094.609.453 1.688.453 1.172 0 1.797-.469.625-.453.859-1.281.125-.516.109-2.156-1.094 1.297-2.719 1.297-2.031 0-3.156-1.469-1.109-1.469-1.109-3.516 0-1.406.516-2.594.516-1.203 1.484-1.844.969-.656 2.266-.656 1.75 0 2.875 1.406v-1.188h1.547v8.516q0 2.313-.469 3.266-.469.969-1.484 1.516-1.016.563-2.5.563-1.766 0-2.859-.797-1.078-.797-1.031-2.391zm1.375-5.922q0 1.953.766 2.844.781.891 1.938.891 1.141 0 1.922-.891.781-.891.781-2.781 0-1.813-.813-2.719-.797-.922-1.922-.922-1.109 0-1.891.906-.781.891-.781 2.672zM33.859 369.377l1.688-.141q.125 1.016.563 1.672.438.656 1.359 1.063.938.406 2.094.406 1.031 0 1.813-.313.797-.313 1.188-.844.391-.531.391-1.156 0-.641-.375-1.109-.375-.484-1.234-.813-.547-.219-2.422-.656-1.875-.453-2.625-.859-.969-.516-1.453-1.266-.469-.75-.469-1.688 0-1.031.578-1.922.594-.906 1.703-1.359 1.125-.469 2.5-.469 1.516 0 2.672.484 1.156.484 1.766 1.438.625.938.672 2.141l-1.719.125q-.141-1.281-.953-1.938-.797-.672-2.359-.672-1.625 0-2.375.609-.75.594-.75 1.438 0 .734.531 1.203.516.469 2.703.969 2.203.5 3.016.875 1.188.547 1.75 1.391.578.828.578 1.922 0 1.094-.625 2.063-.625.953-1.797 1.484-1.156.531-2.609.531-1.844 0-3.094-.531-1.25-.547-1.969-1.625-.703-1.078-.734-2.453zm19.584 1.203l1.719.219q-.406 1.5-1.516 2.344-1.094.828-2.813.828-2.156 0-3.422-1.328t-1.266-3.734q0-2.484 1.266-3.859 1.281-1.375 3.328-1.375 1.984 0 3.234 1.344t1.25 3.797l-.016.438h-7.344q.094 1.625.922 2.484.828.859 2.063.859.906 0 1.547-.469.656-.484 1.047-1.547zm-5.484-2.703h5.5q-.109-1.234-.625-1.859-.797-.969-2.078-.969-1.141 0-1.938.781-.781.766-.859 2.047zm9.094 5.875v-9.859h1.5v1.5q.578-1.047 1.063-1.375.484-.344 1.078-.344.844 0 1.719.547l-.578 1.547q-.609-.359-1.234-.359-.547 0-.984.328-.422.328-.609.906-.281.891-.281 1.953v5.156h-1.672zm8.963 0l-3.75-9.859h1.766l2.125 5.906q.344.953.625 1.984.219-.781.625-1.875l2.188-6.016h1.719l-3.734 9.859h-1.563zm13.344-3.172l1.719.219q-.406 1.5-1.516 2.344-1.094.828-2.813.828-2.156 0-3.422-1.328t-1.266-3.734q0-2.484 1.266-3.859 1.281-1.375 3.328-1.375 1.984 0 3.234 1.344t1.25 3.797l-.016.438h-7.344q.094 1.625.922 2.484.828.859 2.063.859.906 0 1.547-.469.656-.484 1.047-1.547zm-5.484-2.703h5.5q-.109-1.234-.625-1.859-.797-.969-2.078-.969-1.141 0-1.938.781-.781.766-.859 2.047zm9.094 5.875v-9.859h1.5v1.5q.578-1.047 1.063-1.375.484-.344 1.078-.344.844 0 1.719.547l-.578 1.547q-.609-.359-1.234-.359-.547 0-.984.328-.422.328-.609.906-.281.891-.281 1.953v5.156h-1.672z"/><path fill="#cfe2f3" d="M148.751 156.667h188.346v85.827h-188.346z"/><path stroke="#000" stroke-width="2" stroke-linejoin="round" d="M148.751 156.667h188.346v85.827h-188.346z"/><path d="M243.674 169.574h1.516v6.609q0 1.734-.391 2.75t-1.406 1.656q-1.016.641-2.672.641-1.609 0-2.641-.563-1.016-.563-1.453-1.609-.438-1.047-.438-2.875v-6.609h1.516v6.609q0 1.484.266 2.203.281.703.953 1.094.688.375 1.656.375 1.672 0 2.375-.75.719-.766.719-2.922v-6.609zm4.305 11.453v-11.453h1.516v11.453h-1.516zM163.525 200.027l4.406-11.453h1.641l4.688 11.453h-1.734l-1.328-3.469h-4.797l-1.25 3.469h-1.625zm3.313-4.703h3.891l-1.203-3.172q-.547-1.453-.813-2.375-.219 1.094-.609 2.188l-1.266 3.359zm8.453 4.703v-8.297h1.266v1.172q.906-1.359 2.641-1.359.75 0 1.375.266t.938.703q.313.438.438 1.047.078.391.078 1.359v5.109h-1.406v-5.047q0-.859-.172-1.281-.156-.438-.578-.688-.406-.25-.969-.25-.906 0-1.563.578-.641.563-.641 2.156v4.531h-1.406zm8.633.688l1.375.203q.078.641.469.922.531.391 1.438.391.969 0 1.5-.391t.719-1.094q.109-.422.109-1.813-.922 1.094-2.297 1.094-1.719 0-2.656-1.234-.938-1.234-.938-2.969 0-1.188.422-2.188.438-1 1.25-1.547.828-.547 1.922-.547 1.469 0 2.422 1.188v-1h1.297v7.172q0 1.938-.391 2.75-.391.813-1.25 1.281-.859.469-2.109.469-1.484 0-2.406-.672-.906-.672-.875-2.016zm1.172-4.984q0 1.625.641 2.375.656.75 1.625.75t1.625-.734q.656-.75.656-2.344 0-1.531-.672-2.297-.672-.781-1.625-.781-.938 0-1.594.766-.656.766-.656 2.266zm13.43 4.297v-1.219q-.969 1.406-2.641 1.406-.734 0-1.375-.281-.625-.281-.938-.703-.313-.438-.438-1.047-.078-.422-.078-1.313v-5.141h1.406v4.594q0 1.109.078 1.484.141.563.563.875.438.313 1.063.313.641 0 1.188-.313.563-.328.781-.891.234-.563.234-1.625v-4.438h1.406v8.297h-1.25zm3.43 0v-11.453h1.406v11.453h-1.406zm8.992-1.031q-.781.672-1.5.953-.719.266-1.547.266-1.375 0-2.109-.672t-.734-1.703q0-.609.281-1.109.281-.516.719-.813.453-.313 1.016-.469.422-.109 1.25-.203 1.703-.203 2.516-.484v-.375q0-.859-.391-1.203-.547-.484-1.609-.484-.984 0-1.469.359-.469.344-.688 1.219l-1.375-.188q.188-.875.609-1.422.438-.547 1.25-.828.813-.297 1.875-.297 1.063 0 1.719.25.672.25.984.625.313.375.438.953.078.359.078 1.297v1.875q0 1.969.078 2.484.094.516.359 1h-1.469q-.219-.438-.281-1.031zm-.109-3.141q-.766.313-2.297.531-.875.125-1.234.281-.359.156-.563.469-.188.297-.188.656 0 .563.422.938.438.375 1.25.375.813 0 1.438-.344.641-.359.938-.984.234-.469.234-1.406v-.516zm3.586 4.172v-8.297h1.266v1.25q.484-.875.891-1.156.406-.281.906-.281.703 0 1.438.453l-.484 1.297q-.516-.297-1.031-.297-.453 0-.828.281-.359.266-.516.766-.234.75-.234 1.641v4.344h-1.406zm12.742-1.859v-3.141h-3.125v-1.313h3.125v-3.109h1.328v3.109h3.109v1.313h-3.109v3.141h-1.328zm10.102 1.859v-1.406l5.859-7.344q.625-.781 1.188-1.359h-6.391v-1.344h8.203v1.344l-6.422 7.953-.703.797h7.313v1.359h-9.047zm15.945 0v-1.219q-.969 1.406-2.641 1.406-.734 0-1.375-.281-.625-.281-.938-.703-.313-.438-.438-1.047-.078-.422-.078-1.313v-5.141h1.406v4.594q0 1.109.078 1.484.141.563.563.875.438.313 1.063.313.641 0 1.188-.313.563-.328.781-.891.234-.563.234-1.625v-4.438h1.406v8.297h-1.25zm8.898 0v-1.219q-.969 1.406-2.641 1.406-.734 0-1.375-.281-.625-.281-.938-.703-.313-.438-.438-1.047-.078-.422-.078-1.313v-5.141h1.406v4.594q0 1.109.078 1.484.141.563.563.875.438.313 1.063.313.641 0 1.188-.313.563-.328.781-.891.234-.563.234-1.625v-4.438h1.406v8.297h-1.25zm3.43 0v-11.453h1.406v11.453h-1.406zm10.719 3.375q-1.172-1.469-1.984-3.438-.797-1.984-.797-4.094 0-1.859.609-3.563.703-1.969 2.172-3.938h1q-.938 1.625-1.25 2.328-.469 1.078-.75 2.25-.328 1.453-.328 2.938 0 3.75 2.328 7.516h-1zm2.641-.188v-11.484h1.281v1.078q.453-.641 1.016-.953.578-.313 1.391-.313 1.063 0 1.875.547.813.547 1.219 1.547.422.984.422 2.172 0 1.281-.469 2.297-.453 1.016-1.328 1.563-.859.547-1.828.547-.703 0-1.266-.297-.547-.297-.906-.75v4.047h-1.406zm1.266-7.297q0 1.609.641 2.375.656.766 1.578.766.938 0 1.609-.797.672-.797.672-2.453 0-1.594-.656-2.375-.656-.797-1.563-.797-.891 0-1.594.844-.688.844-.688 2.438zm7.617 4.109v-8.297h1.266v1.25q.484-.875.891-1.156.406-.281.906-.281.703 0 1.438.453l-.484 1.297q-.516-.297-1.031-.297-.453 0-.828.281-.359.266-.516.766-.234.75-.234 1.641v4.344h-1.406zm4.813-4.156q0-2.297 1.281-3.406 1.078-.922 2.609-.922 1.719 0 2.797 1.125 1.094 1.109 1.094 3.094 0 1.594-.484 2.516-.484.922-1.406 1.438-.906.5-2 .5-1.734 0-2.813-1.109-1.078-1.125-1.078-3.234zm1.453 0q0 1.594.688 2.391.703.797 1.75.797 1.047 0 1.734-.797.703-.797.703-2.438 0-1.531-.703-2.328-.688-.797-1.734-.797-1.047 0-1.75.797-.688.781-.688 2.375zm7.039 4.156l3.031-4.313-2.813-3.984h1.766l1.266 1.938q.359.563.578.938.344-.516.641-.922l1.391-1.953h1.688l-2.875 3.906 3.094 4.391h-1.734l-1.703-2.578-.453-.703-2.172 3.281h-1.703zm8.875 3.203l-.156-1.328q.453.125.797.125.469 0 .75-.156t.469-.438q.125-.203.422-1.047l.125-.344-3.141-8.313h1.516l1.719 4.797q.344.922.609 1.922.234-.969.578-1.891l1.766-4.828h1.406l-3.156 8.438q-.5 1.375-.781 1.891-.375.688-.859 1.016-.484.328-1.156.328-.406 0-.906-.172zm8.984.172h-1.016q2.344-3.766 2.344-7.516 0-1.469-.344-2.922-.266-1.172-.734-2.25-.313-.703-1.266-2.344h1.016q1.469 1.969 2.172 3.938.594 1.703.594 3.563 0 2.109-.813 4.094-.797 1.969-1.953 3.438z"/><path fill="#ffe599" d="M148.751 217.501h188.346v26.236h-188.346z"/><path stroke="#000" stroke-width="2" stroke-linejoin="round" d="M148.751 217.501h188.346v26.236h-188.346z"/><path fill="#cfe2f3" d="M148.751 317.087h188.346v85.827h-188.346z"/><path stroke="#000" stroke-width="2" stroke-linejoin="round" d="M148.751 317.087h188.346v85.827h-188.346z"/><path d="M208.999 339.241l1.797.453q-.563 2.219-2.031 3.391-1.469 1.156-3.594 1.156-2.203 0-3.578-.891-1.375-.906-2.094-2.594-.719-1.703-.719-3.656 0-2.125.797-3.703.813-1.578 2.313-2.391 1.5-.828 3.297-.828 2.047 0 3.438 1.047 1.391 1.031 1.938 2.906l-1.766.422q-.469-1.484-1.375-2.156-.906-.688-2.266-.688-1.563 0-2.625.75-1.047.75-1.484 2.031-.422 1.266-.422 2.609 0 1.734.5 3.031.516 1.281 1.578 1.922 1.078.641 2.313.641 1.516 0 2.563-.859 1.047-.875 1.422-2.594zm10.004 4.766v-1.453q-1.141 1.672-3.125 1.672-.859 0-1.625-.328-.75-.344-1.125-.844-.359-.5-.516-1.234-.094-.5-.094-1.563v-6.109h1.672v5.469q0 1.313.094 1.766.156.656.672 1.031.516.375 1.266.375t1.406-.375q.656-.391.922-1.047.281-.672.281-1.938v-5.281h1.672v9.859h-1.5zm3.251-2.938l1.656-.266q.141 1 .766 1.531.641.516 1.781.516 1.156 0 1.703-.469.563-.469.563-1.094 0-.563-.484-.891-.344-.219-1.703-.563-1.844-.469-2.563-.797-.703-.344-1.078-.938-.359-.609-.359-1.328 0-.656.297-1.219.313-.563.828-.938.391-.281 1.063-.484.672-.203 1.438-.203 1.172 0 2.047.344.875.328 1.281.906.422.563.578 1.516l-1.625.219q-.109-.75-.656-1.172-.531-.438-1.5-.438-1.156 0-1.641.391-.484.375-.484.875 0 .328.203.594.203.266.641.438.25.094 1.469.438 1.766.469 2.469.766.703.297 1.094.875.406.578.406 1.438 0 .828-.484 1.578-.484.734-1.406 1.141-.922.391-2.078.391-1.922 0-2.938-.797-1-.797-1.281-2.359zm13.656 1.438l.234 1.484q-.703.141-1.266.141-.906 0-1.406-.281-.5-.297-.703-.75-.203-.469-.203-1.984v-5.656h-1.234v-1.313h1.234v-2.438l1.656-1v3.438h1.688v1.313h-1.688v5.75q0 .719.078.922.094.203.297.328.203.125.578.125.266 0 .734-.078zm.902-3.422q0-2.734 1.531-4.063 1.266-1.094 3.094-1.094 2.031 0 3.313 1.344 1.297 1.328 1.297 3.672 0 1.906-.578 3-.563 1.078-1.656 1.688-1.078.594-2.375.594-2.063 0-3.344-1.328-1.281-1.328-1.281-3.813zm1.719 0q0 1.891.828 2.828.828.938 2.078.938t2.063-.938q.828-.953.828-2.891 0-1.828-.828-2.766t-2.063-.938q-1.25 0-2.078.938-.828.938-.828 2.828zm9.282 4.922v-9.859h1.5v1.391q.453-.719 1.219-1.156.781-.453 1.766-.453 1.094 0 1.797.453.703.453.984 1.281 1.172-1.734 3.047-1.734 1.469 0 2.25.813.797.813.797 2.5v6.766h-1.672v-6.203q0-1-.156-1.438-.156-.453-.594-.719-.422-.266-1-.266-1.031 0-1.719.688-.688.688-.688 2.219v5.719h-1.672v-6.406q0-1.109-.406-1.656-.406-.563-1.344-.563-.703 0-1.313.375-.594.359-.859 1.078-.266.719-.266 2.063v5.109h-1.672zm22.291-3.172l1.719.219q-.406 1.5-1.516 2.344-1.094.828-2.813.828-2.156 0-3.422-1.328t-1.266-3.734q0-2.484 1.266-3.859 1.281-1.375 3.328-1.375 1.984 0 3.234 1.344t1.25 3.797l-.016.438h-7.344q.094 1.625.922 2.484.828.859 2.063.859.906 0 1.547-.469.656-.484 1.047-1.547zm-5.484-2.703h5.5q-.109-1.234-.625-1.859-.797-.969-2.078-.969-1.141 0-1.938.781-.781.766-.859 2.047zm9.094 5.875v-9.859h1.5v1.5q.578-1.047 1.063-1.375.484-.344 1.078-.344.844 0 1.719.547l-.578 1.547q-.609-.359-1.234-.359-.547 0-.984.328-.422.328-.609.906-.281.891-.281 1.953v5.156h-1.672zm5.556-2.938l1.656-.266q.141 1 .766 1.531.641.516 1.781.516 1.156 0 1.703-.469.563-.469.563-1.094 0-.563-.484-.891-.344-.219-1.703-.563-1.844-.469-2.563-.797-.703-.344-1.078-.938-.359-.609-.359-1.328 0-.656.297-1.219.313-.563.828-.938.391-.281 1.063-.484.672-.203 1.438-.203 1.172 0 2.047.344.875.328 1.281.906.422.563.578 1.516l-1.625.219q-.109-.75-.656-1.172-.531-.438-1.5-.438-1.156 0-1.641.391-.484.375-.484.875 0 .328.203.594.203.266.641.438.25.094 1.469.438 1.766.469 2.469.766.703.297 1.094.875.406.578.406 1.438 0 .828-.484 1.578-.484.734-1.406 1.141-.922.391-2.078.391-1.922 0-2.938-.797-1-.797-1.281-2.359z"/><path fill="#ffe599" d="M148.751 377.501h188.346v26.236h-188.346z"/><path stroke="#000" stroke-width="2" stroke-linejoin="round" d="M148.751 377.501h188.346v26.236h-188.346z"/><path d="M337.097 390.619l105.152-9.619" fill="none"/><path stroke="#000" stroke-width="2" stroke-linejoin="round" d="M337.097 390.619l93.202-8.526" fill-rule="evenodd"/><path stroke="#000" stroke-width="2" d="M430.6 385.383l8.738-4.117-9.339-2.463z" fill-rule="evenodd"/><path fill="#d5a6bd" d="M148.751 469.171h188.346v85.827h-188.346z"/><path stroke="#000" stroke-width="2" stroke-linejoin="round" d="M148.751 469.171h188.346v85.827h-188.346z"/><path d="M159.266 497.004v-13.594h1.813v5.578h7.063v-5.578h1.797v13.594h-1.797v-6.406h-7.063v6.406h-1.813zm13.129 3.797l-.172-1.563q.547.141.953.141.547 0 .875-.188.344-.188.563-.516.156-.25.5-1.25l.156-.406-3.734-9.875h1.797l2.047 5.719q.406 1.078.719 2.281.281-1.156.688-2.25l2.094-5.75h1.672l-3.75 10.031q-.594 1.625-.938 2.234-.438.828-1.016 1.203-.578.391-1.375.391-.484 0-1.078-.203zm8.734-6.734l1.656-.266q.141 1 .766 1.531.641.516 1.781.516 1.156 0 1.703-.469.563-.469.563-1.094 0-.563-.484-.891-.344-.219-1.703-.563-1.844-.469-2.563-.797-.703-.344-1.078-.938-.359-.609-.359-1.328 0-.656.297-1.219.313-.563.828-.938.391-.281 1.063-.484.672-.203 1.438-.203 1.172 0 2.047.344.875.328 1.281.906.422.563.578 1.516l-1.625.219q-.109-.75-.656-1.172-.531-.438-1.5-.438-1.156 0-1.641.391-.484.375-.484.875 0 .328.203.594.203.266.641.438.25.094 1.469.438 1.766.469 2.469.766.703.297 1.094.875.406.578.406 1.438 0 .828-.484 1.578-.484.734-1.406 1.141-.922.391-2.078.391-1.922 0-2.938-.797-1-.797-1.281-2.359zm13.656 1.438l.234 1.484q-.703.141-1.266.141-.906 0-1.406-.281-.5-.297-.703-.75-.203-.469-.203-1.984v-5.656h-1.234v-1.313h1.234v-2.438l1.656-1v3.438h1.688v1.313h-1.688v5.75q0 .719.078.922.094.203.297.328.203.125.578.125.266 0 .734-.078zm1.511 1.5v-9.859h1.5v1.5q.578-1.047 1.063-1.375.484-.344 1.078-.344.844 0 1.719.547l-.578 1.547q-.609-.359-1.234-.359-.547 0-.984.328-.422.328-.609.906-.281.891-.281 1.953v5.156h-1.672zm6.244-11.688v-1.906h1.672v1.906h-1.672zm0 11.688v-9.859h1.672v9.859h-1.672zm3.02 0l3.594-5.125-3.328-4.734h2.094l1.516 2.313q.422.656.672 1.109l.766-1.094 1.656-2.328h1.984l-3.391 4.641 3.656 5.219h-2.047l-2.031-3.063-.531-.828-2.594 3.891h-2.016zm15.84 0v-13.594h4.688q1.578 0 2.422.188 1.156.266 1.984.969 1.078.922 1.609 2.344.531 1.406.531 3.219 0 1.547-.359 2.75-.359 1.188-.922 1.984-.563.781-1.234 1.234-.672.438-1.625.672-.953.234-2.188.234h-4.906zm1.797-1.609h2.906q1.344 0 2.109-.25.766-.25 1.219-.703.641-.641 1-1.719t.359-2.625q0-2.125-.703-3.266-.703-1.156-1.703-1.547-.719-.281-2.328-.281h-2.859v10.391zm17.895.391q-.938.797-1.797 1.125-.859.313-1.844.313-1.609 0-2.484-.781-.875-.797-.875-2.031 0-.734.328-1.328.328-.594.859-.953.531-.359 1.203-.547.5-.141 1.484-.25 2.031-.25 2.984-.578v-.438q0-1.016-.469-1.438-.641-.563-1.906-.563-1.172 0-1.734.406-.563.406-.828 1.469l-1.641-.234q.234-1.047.734-1.688.516-.641 1.469-.984.969-.359 2.25-.359 1.266 0 2.047.297.781.297 1.156.75.375.453.516 1.141.094.422.094 1.531v2.234q0 2.328.094 2.953.109.609.438 1.172h-1.75q-.266-.516-.328-1.219zm-.141-3.719q-.906.359-2.734.625-1.031.141-1.453.328-.422.188-.656.547-.234.359-.234.797 0 .672.5 1.125.516.438 1.484.438.969 0 1.719-.422.75-.438 1.109-1.156.266-.578.266-1.672v-.609zm3.407 2l1.656-.266q.141 1 .766 1.531.641.516 1.781.516 1.156 0 1.703-.469.563-.469.563-1.094 0-.563-.484-.891-.344-.219-1.703-.563-1.844-.469-2.563-.797-.703-.344-1.078-.938-.359-.609-.359-1.328 0-.656.297-1.219.313-.563.828-.938.391-.281 1.063-.484.672-.203 1.438-.203 1.172 0 2.047.344.875.328 1.281.906.422.563.578 1.516l-1.625.219q-.109-.75-.656-1.172-.531-.438-1.5-.438-1.156 0-1.641.391-.484.375-.484.875 0 .328.203.594.203.266.641.438.25.094 1.469.438 1.766.469 2.469.766.703.297 1.094.875.406.578.406 1.438 0 .828-.484 1.578-.484.734-1.406 1.141-.922.391-2.078.391-1.922 0-2.938-.797-1-.797-1.281-2.359zm10 2.938v-13.594h1.672v4.875q1.172-1.359 2.953-1.359 1.094 0 1.891.438.813.422 1.156 1.188.359.766.359 2.203v6.25h-1.672v-6.25q0-1.25-.547-1.813-.547-.578-1.531-.578-.75 0-1.406.391-.641.375-.922 1.047-.281.656-.281 1.813v5.391h-1.672zm11.923 0h-1.547v-13.594h1.656v4.844q1.063-1.328 2.703-1.328.906 0 1.719.375.813.359 1.328 1.031.531.656.828 1.594.297.938.297 2 0 2.531-1.25 3.922-1.25 1.375-3 1.375t-2.734-1.453v1.234zm-.016-5q0 1.766.469 2.563.797 1.281 2.141 1.281 1.094 0 1.891-.938.797-.953.797-2.844 0-1.922-.766-2.844-.766-.922-1.844-.922-1.094 0-1.891.953-.797.953-.797 2.75zm8.219.078q0-2.734 1.531-4.063 1.266-1.094 3.094-1.094 2.031 0 3.313 1.344 1.297 1.328 1.297 3.672 0 1.906-.578 3-.563 1.078-1.656 1.688-1.078.594-2.375.594-2.063 0-3.344-1.328-1.281-1.328-1.281-3.813zm1.719 0q0 1.891.828 2.828.828.938 2.078.938t2.063-.938q.828-.953.828-2.891 0-1.828-.828-2.766t-2.063-.938q-1.25 0-2.078.938-.828.938-.828 2.828zm15.719 3.703q-.938.797-1.797 1.125-.859.313-1.844.313-1.609 0-2.484-.781-.875-.797-.875-2.031 0-.734.328-1.328.328-.594.859-.953.531-.359 1.203-.547.5-.141 1.484-.25 2.031-.25 2.984-.578v-.438q0-1.016-.469-1.438-.641-.563-1.906-.563-1.172 0-1.734.406-.563.406-.828 1.469l-1.641-.234q.234-1.047.734-1.688.516-.641 1.469-.984.969-.359 2.25-.359 1.266 0 2.047.297.781.297 1.156.75.375.453.516 1.141.094.422.094 1.531v2.234q0 2.328.094 2.953.109.609.438 1.172h-1.75q-.266-.516-.328-1.219zm-.141-3.719q-.906.359-2.734.625-1.031.141-1.453.328-.422.188-.656.547-.234.359-.234.797 0 .672.5 1.125.516.438 1.484.438.969 0 1.719-.422.75-.438 1.109-1.156.266-.578.266-1.672v-.609zm4.063 4.938v-9.859h1.5v1.5q.578-1.047 1.063-1.375.484-.344 1.078-.344.844 0 1.719.547l-.578 1.547q-.609-.359-1.234-.359-.547 0-.984.328-.422.328-.609.906-.281.891-.281 1.953v5.156h-1.672zm12.619 0v-1.25q-.938 1.469-2.75 1.469-1.172 0-2.172-.641-.984-.656-1.531-1.813-.531-1.172-.531-2.688 0-1.469.484-2.672.5-1.203 1.469-1.844.984-.641 2.203-.641.891 0 1.578.375.703.375 1.141.984v-4.875h1.656v13.594h-1.547zm-5.281-4.922q0 1.891.797 2.828.813.938 1.891.938 1.094 0 1.859-.891.766-.891.766-2.734 0-2.016-.781-2.953-.781-.953-1.922-.953-1.109 0-1.859.906t-.75 2.859zM162.188 523.004q-1.375-1.75-2.328-4.078-.953-2.344-.953-4.844 0-2.219.703-4.234.844-2.344 2.578-4.672h1.203q-1.125 1.922-1.484 2.75-.563 1.281-.891 2.672-.406 1.734-.406 3.484 0 4.469 2.781 8.922h-1.203zm12.947-8.766l1.797.453q-.563 2.219-2.031 3.391-1.469 1.156-3.594 1.156-2.203 0-3.578-.891-1.375-.906-2.094-2.594-.719-1.703-.719-3.656 0-2.125.797-3.703.813-1.578 2.313-2.391 1.5-.828 3.297-.828 2.047 0 3.438 1.047 1.391 1.031 1.938 2.906l-1.766.422q-.469-1.484-1.375-2.156-.906-.688-2.266-.688-1.563 0-2.625.75-1.047.75-1.484 2.031-.422 1.266-.422 2.609 0 1.734.5 3.031.516 1.281 1.578 1.922 1.078.641 2.313.641 1.516 0 2.563-.859 1.047-.875 1.422-2.594zm3.567-6.922v-1.906h1.672v1.906h-1.672zm0 11.687v-9.859h1.672v9.859h-1.672zm4.114 0v-9.859h1.5v1.5q.578-1.047 1.063-1.375.484-.344 1.078-.344.844 0 1.719.547l-.578 1.547q-.609-.359-1.234-.359-.547 0-.984.328-.422.328-.609.906-.281.891-.281 1.953v5.156h-1.672zm12.666-3.609l1.641.219q-.266 1.688-1.375 2.656-1.109.953-2.734.953-2.016 0-3.25-1.313-1.219-1.328-1.219-3.797 0-1.594.516-2.781.531-1.203 1.609-1.797 1.094-.609 2.359-.609 1.609 0 2.625.813t1.313 2.312l-1.625.25q-.234-1-.828-1.5t-1.422-.5q-1.266 0-2.063.906-.781.906-.781 2.859 0 1.984.766 2.891.766.891 1.984.891.984 0 1.641-.594.656-.609.844-1.859zm9.344 3.609v-1.453q-1.141 1.672-3.125 1.672-.859 0-1.625-.328-.75-.344-1.125-.844-.359-.5-.516-1.234-.094-.5-.094-1.563v-6.109h1.672v5.469q0 1.313.094 1.766.156.656.672 1.031.516.375 1.266.375t1.406-.375q.656-.391.922-1.047.281-.672.281-1.938v-5.281h1.672v9.859h-1.5zm3.938-11.687v-1.906h1.672v1.906h-1.672zm0 11.687v-9.859h1.672v9.859h-1.672zm7.785-1.5l.234 1.484q-.703.141-1.266.141-.906 0-1.406-.281-.5-.297-.703-.75-.203-.469-.203-1.984v-5.656h-1.234v-1.313h1.234v-2.438l1.656-1v3.438h1.688v1.313h-1.688v5.75q0 .719.078.922.094.203.297.328.203.125.578.125.266 0 .734-.078zm6.851 1.5v-13.594h5.109q1.547 0 2.484.406.953.406 1.484 1.266.531.859.531 1.797 0 .875-.469 1.656-.469.766-1.438 1.234 1.234.359 1.891 1.234.672.875.672 2.063 0 .953-.406 1.781-.391.813-.984 1.266-.594.438-1.5.672-.891.219-2.188.219h-5.188zm1.797-7.891h2.938q1.203 0 1.719-.156.688-.203 1.031-.672.359-.469.359-1.188 0-.672-.328-1.188-.328-.516-.938-.703-.594-.203-2.063-.203h-2.719v4.109zm0 6.281h3.391q.875 0 1.219-.063.625-.109 1.047-.359.422-.266.688-.766.266-.5.266-1.141 0-.766-.391-1.328-.391-.563-1.078-.781-.688-.234-1.984-.234h-3.156v4.672zm10.49 1.609v-9.859h1.5v1.5q.578-1.047 1.063-1.375.484-.344 1.078-.344.844 0 1.719.547l-.578 1.547q-.609-.359-1.234-.359-.547 0-.984.328-.422.328-.609.906-.281.891-.281 1.953v5.156h-1.672zm12.978-3.172l1.719.219q-.406 1.5-1.516 2.344-1.094.828-2.813.828-2.156 0-3.422-1.328t-1.266-3.734q0-2.484 1.266-3.859 1.281-1.375 3.328-1.375 1.984 0 3.234 1.344t1.25 3.797l-.016.438h-7.344q.094 1.625.922 2.484.828.859 2.063.859.906 0 1.547-.469.656-.484 1.047-1.547zm-5.484-2.703h5.5q-.109-1.234-.625-1.859-.797-.969-2.078-.969-1.141 0-1.938.781-.781.766-.859 2.047zm15.548 4.656q-.938.797-1.797 1.125-.859.313-1.844.313-1.609 0-2.484-.781-.875-.797-.875-2.031 0-.734.328-1.328.328-.594.859-.953.531-.359 1.203-.547.5-.141 1.484-.25 2.031-.25 2.984-.578v-.438q0-1.016-.469-1.437-.641-.563-1.906-.563-1.172 0-1.734.406-.563.406-.828 1.469l-1.641-.234q.234-1.047.734-1.688.516-.641 1.469-.984.969-.359 2.25-.359 1.266 0 2.047.297.781.297 1.156.75.375.453.516 1.141.094.422.094 1.531v2.234q0 2.328.094 2.953.109.609.438 1.172h-1.75q-.266-.516-.328-1.219zm-.141-3.719q-.906.359-2.734.625-1.031.141-1.453.328-.422.188-.656.547-.234.359-.234.797 0 .672.5 1.125.516.438 1.484.438.969 0 1.719-.422.75-.438 1.109-1.156.266-.578.266-1.672v-.609zm4.094 4.938v-13.594h1.672v7.75l3.953-4.016h2.156l-3.766 3.656 4.141 6.203h-2.063l-3.25-5.031-1.172 1.125v3.906h-1.672zm16.063-3.172l1.719.219q-.406 1.5-1.516 2.344-1.094.828-2.813.828-2.156 0-3.422-1.328t-1.266-3.734q0-2.484 1.266-3.859 1.281-1.375 3.328-1.375 1.984 0 3.234 1.344t1.25 3.797l-.016.438h-7.344q.094 1.625.922 2.484.828.859 2.063.859.906 0 1.547-.469.656-.484 1.047-1.547zm-5.484-2.703h5.5q-.109-1.234-.625-1.859-.797-.969-2.078-.969-1.141 0-1.938.781-.781.766-.859 2.047zm9.094 5.875v-9.859h1.5v1.5q.578-1.047 1.063-1.375.484-.344 1.078-.344.844 0 1.719.547l-.578 1.547q-.609-.359-1.234-.359-.547 0-.984.328-.422.328-.609.906-.281.891-.281 1.953v5.156h-1.672zM159.157 541.004v-13.594h2.719l3.219 9.625q.438 1.344.641 2.016.234-.75.734-2.188l3.25-9.453h2.422v13.594h-1.734v-11.391l-3.953 11.391h-1.625l-3.938-11.578v11.578h-1.734zm14.76-4.922q0-2.734 1.531-4.063 1.266-1.094 3.094-1.094 2.031 0 3.313 1.344 1.297 1.328 1.297 3.672 0 1.906-.578 3-.563 1.078-1.656 1.688-1.078.594-2.375.594-2.063 0-3.344-1.328-1.281-1.328-1.281-3.813zm1.719 0q0 1.891.828 2.828.828.938 2.078.938t2.063-.938q.828-.953.828-2.891 0-1.828-.828-2.766t-2.063-.938q-1.25 0-2.078.938-.828.938-.828 2.828zm9.282 4.922v-9.859h1.5v1.406q1.094-1.625 3.141-1.625.891 0 1.641.328.75.313 1.109.844.375.516.531 1.219.094.469.094 1.625v6.063h-1.672v-6q0-1.016-.203-1.516-.188-.516-.688-.813-.5-.297-1.172-.297-1.063 0-1.844.672-.766.672-.766 2.578v5.375h-1.672zm10.391-11.688v-1.906h1.672v1.906h-1.672zm0 11.688v-9.859h1.672v9.859h-1.672zm7.785-1.5l.234 1.484q-.703.141-1.266.141-.906 0-1.406-.281-.5-.297-.703-.75-.203-.469-.203-1.984v-5.656h-1.234v-1.313h1.234v-2.438l1.656-1v3.438h1.688v1.313h-1.688v5.75q0 .719.078.922.094.203.297.328.203.125.578.125.266 0 .734-.078zm.902-3.422q0-2.734 1.531-4.063 1.266-1.094 3.094-1.094 2.031 0 3.313 1.344 1.297 1.328 1.297 3.672 0 1.906-.578 3-.563 1.078-1.656 1.688-1.078.594-2.375.594-2.063 0-3.344-1.328-1.281-1.328-1.281-3.813zm1.719 0q0 1.891.828 2.828.828.938 2.078.938t2.063-.938q.828-.953.828-2.891 0-1.828-.828-2.766t-2.063-.938q-1.25 0-2.078.938-.828.938-.828 2.828zm9.266 4.922v-9.859h1.5v1.5q.578-1.047 1.063-1.375.484-.344 1.078-.344.844 0 1.719.547l-.578 1.547q-.609-.359-1.234-.359-.547 0-.984.328-.422.328-.609.906-.281.891-.281 1.953v5.156h-1.672zm7.322 4h-1.188q2.766-4.453 2.766-8.922 0-1.734-.391-3.453-.328-1.391-.891-2.672-.359-.844-1.484-2.781h1.188q1.75 2.328 2.578 4.672.719 2.016.719 4.234 0 2.5-.969 4.844-.953 2.328-2.328 4.078z"/><path d="M242.924 403.738v65.433" fill="none"/><path stroke="#000" stroke-width="2" stroke-linejoin="round" d="M242.924 403.738v53.433" fill-rule="evenodd"/><path stroke="#000" stroke-width="2" d="M239.62 457.171l3.303 9.076 3.303-9.076z" fill-rule="evenodd"/><path d="M148.751 199.58l-29.764 1.26" fill="none"/><path stroke="#b6d7a8" stroke-width="2" stroke-linejoin="round" d="M148.751 199.58l-17.775.752" fill-rule="evenodd"/><path fill="#b6d7a8" stroke="#b6d7a8" stroke-width="2" d="M130.836 197.032l-8.928 3.684 9.208 2.917z" fill-rule="evenodd"/><path d="M148.751 360l-29.664-4.168" fill="none"/><path stroke="#b6d7a8" stroke-width="2" stroke-linejoin="round" d="M148.751 360l-17.781-2.498" fill-rule="evenodd"/><path fill="#b6d7a8" stroke="#b6d7a8" stroke-width="2" d="M131.43 354.23l-9.448 2.008 8.528 4.534z" fill-rule="evenodd"/><path d="M148.751 512.084l-31.433-.409" fill="none"/><path stroke="#b6d7a8" stroke-width="2" stroke-linejoin="round" d="M148.751 512.084l-19.434-.253" fill-rule="evenodd"/><path fill="#b6d7a8" stroke="#b6d7a8" stroke-width="2" d="M129.36 508.528l-9.118 3.185 9.032 3.421z" fill-rule="evenodd"/><path d="M337.097 199.58l426.079-.409" fill="none"/><path stroke="#f9cb9c" stroke-width="2" stroke-linejoin="round" d="M337.097 199.58l414.079-.398" fill-rule="evenodd"/><path fill="#f9cb9c" stroke="#f9cb9c" stroke-width="2" d="M751.179 202.486l9.073-3.312-9.079-3.295z" fill-rule="evenodd"/></g></svg>